
		<svg width="3152.034382332769" height="1087.0458336792985" xmlns="http://www.w3.org/2000/svg" xmlns:xlink="http://www.w3.org/1999/xlink" version="1.1">
            <g transform="scale(7.601719116638451) translate(10, 10)">
				<g id="main_text" rel="mainfill" name="main_text" xmlns:name="mainText_mainfill" fill="#000000" transform="translate(124.87214279632293, -20.307069778442376)"><path d="M24.946 28.88221875 l21.931 47.068 l-5.0146 0 l-7.395 -15.52 l-20.313 0 l-7.3315 15.52 l-5.2686 0 l22.249 -47.068 l1.1426 0 z M24.375 38.84721875 l-8.125 17.075 l16.123 0 z M87.21635546875001 47.73421875 l-3.5547 2.2217 q-4.602050781 -6.157226563 -12.56835938 -6.157226563 q-6.379394531 0 -10.5847168 4.094238281 t-4.2053 9.9658 q0 3.80859375 1.936035156 7.188720703 t5.3003 5.2209 t7.5537 1.8408 q7.712402344 0 12.56835938 -6.09375 l3.5547 2.3169 q-2.507324219 3.745117188 -6.712646484 5.792236328 t-9.6008 2.0471 q-8.220214844 0 -13.66333008 -5.236816406 t-5.4431 -12.727 q0 -5.078125 2.554931641 -9.410400391 t6.9824 -6.7603 t9.95 -2.428 q3.427734375 0 6.649169922 1.047363281 t5.4749 2.7454 t3.8086 4.3323 z M95.18312265625 40.49821875 l4.5068 0 l0 16.25 q0 5.966796875 0.634765625 8.188476563 q0.9521484375 3.205566406 3.649902344 5.062255859 t6.4746 1.8567 q3.745117188 0 6.34765625 -1.809082031 t3.5864 -4.7607 q0.6982421875 -1.999511719 0.6982421875 -8.537597656 l0 -16.25 l4.5703 0 l0 17.107 q0 7.204589844 -1.697998047 10.83862305 t-5.0623 5.6812 t-8.4424 2.0471 q-5.109863281 0 -8.505859375 -2.047119141 t-5.0781 -5.7446 t-1.6821 -11.124 l0 -16.758 z M135.4906890625 62.65121875 l0 -5.5542 q0.5712890625 -7.109375 2.983398438 -10.41015625 q1.999511719 -3.015136719 5.236816406 -4.792480469 q2.126464844 -1.364746094 6.062011719 -1.459960938 q2.5390625 0 5.141601563 0.9521484375 t4.0308 2.5391 t2.8882 4.7607 q0.7934570313 -2.03125 3.332519531 -4.760742188 q1.237792969 -1.047363281 3.205566406 -2.062988281 q1.333007813 -0.8569335938 6.188964844 -1.428222656 q3.618164063 0 6.950683594 1.809082031 t4.6814 5.094 t1.3489 9.7913 l0 19.011 l-4.5703 0 l0 -19.011 q0 -5.5859375 -0.7934570313 -7.680664063 t-2.7295 -3.3801 t-4.6655 -1.2854 q-5.141601563 0.3491210938 -8.791503906 4.982910156 q-1.428222656 1.967773438 -2.158203125 8.728027344 l0 17.646 l-4.4751 0 l0 -17.837 q0 -6.284179688 -1.396484375 -8.553466797 t-3.3325 -3.6182 t-4.8242 -1.3489 q-3.110351563 0 -5.347900391 1.586914063 t-3.5071 4.7449 t-1.0156 10.267 l0 14.758 l-4.4434 0 l0 -13.489 z M226.230125 63.76221875 l3.7451 1.9995 q-1.809082031 3.649902344 -4.252929688 5.871582031 t-5.4907 3.3801 t-6.8872 1.1584 q-8.505859375 0 -13.29833984 -5.570068359 t-4.7925 -12.584 q0 -6.633300781 4.0625 -11.80664063 q5.141601563 -6.6015625 13.80615234 -6.6015625 q8.854980469 0 14.18701172 6.760253906 q3.776855469 4.760742188 3.80859375 11.87011719 l-31.262 0 q0.126953125 6.09375 3.872070313 9.981689453 t9.2358 3.8879 q2.666015625 0 5.173339844 -0.9362792969 t4.2688 -2.4597 t3.8245 -4.9512 z M226.230125 54.39921875 q-0.888671875 -3.586425781 -2.602539063 -5.728759766 t-4.5386 -3.4595 t-5.9351 -1.3171 q-5.109863281 0 -8.791503906 3.30078125 q-2.666015625 2.412109375 -4.030761719 7.204589844 l25.898 0 z M239.433621875 62.93721875 l-0.063477 -3.7134 q-0.09521484375 -2.729492188 0.2221679688 -4.633789063 q0.6982421875 -5.998535156 3.046875 -8.791503906 q2.28515625 -2.443847656 4.665527344 -3.776855469 q3.935546875 -1.682128906 8.981933594 -1.586914063 q3.935546875 0 7.283935547 1.983642578 t4.7766 5.332 t1.4282 10.49 l0 17.9 l-4.4434 0 l0 -16.599 q0 -6.030273438 -0.5078125 -8.061523438 q-0.7934570313 -3.459472656 -3.142089844 -4.903564453 t-6.9507 -1.4441 q-4.0625 0 -7.236328125 2.348632813 t-2.9517 6.4111 q-0.6030273438 2.602539063 -0.6030273438 9.489746094 l0 12.759 l-4.5068 0 l0 -13.203 z"/></g><g id="SvgjsG1009" rel="mainfill" name="main_text" xmlns:name="mainText_mainfill" fill="#000000" transform="translate(120.71394396285736, 38.15776252746583)"><path d="M5.7129 76.07661875 l0 -47.068 l1.0156 0 l31.294 36.023 l0 -36.023 l4.6338 0 l0 47.068 l-1.0791 0 l-30.977 -35.579 l0 35.579 l-4.8877 0 z M82.646140625 63.76221875 l3.7451 1.9995 q-1.809082031 3.649902344 -4.252929688 5.871582031 t-5.4907 3.3801 t-6.8872 1.1584 q-8.505859375 0 -13.29833984 -5.570068359 t-4.7925 -12.584 q0 -6.633300781 4.0625 -11.80664063 q5.141601563 -6.6015625 13.80615234 -6.6015625 q8.854980469 0 14.18701172 6.760253906 q3.776855469 4.760742188 3.80859375 11.87011719 l-31.262 0 q0.126953125 6.09375 3.872070313 9.981689453 t9.2358 3.8879 q2.666015625 0 5.173339844 -0.9362792969 t4.2688 -2.4597 t3.8245 -4.9512 z M82.646140625 54.39921875 q-0.888671875 -3.586425781 -2.602539063 -5.728759766 t-4.5386 -3.4595 t-5.9351 -1.3171 q-5.109863281 0 -8.791503906 3.30078125 q-2.666015625 2.412109375 -4.030761719 7.204589844 l25.898 0 z M108.4184375 71.22071875 q-3.30078125 1.77734375 -6.474609375 0.2856445313 q-3.872070313 -2.951660156 -3.681640625 -8.410644531 l0 -14.727 l8.252 0 l0 -3.8403 l-8.2837 0 l0 -16.821 l-4.5068 0 l0 36.15 q-0.0634765625 3.80859375 1.745605469 6.982421875 q2.983398438 5.046386719 8.125 5.33203125 q2.729492188 0.09521484375 6.220703125 -1.237792969 q-0.5395507813 -1.333007813 -1.396484375 -3.713378906 z M112.25829625 41.38621875 l4.6021 0 l10.664 25.295 l11.172 -25.295 l0.79346 0 l11.108 25.295 l10.854 -25.295 l4.6973 0 l-15.107 34.817 l-0.88867 0 l-11.045 -24.915 l-11.172 24.915 l-0.8252 0 z M187.82680859375 39.60921875 q8.029785156 0 13.33007813 5.808105469 q4.792480469 5.33203125 4.792480469 12.60009766 t-5.0781 12.711 t-13.044 5.4431 q-7.998046875 0 -13.06030273 -5.443115234 t-5.0623 -12.711 q0 -7.236328125 4.792480469 -12.56835938 q5.300292969 -5.83984375 13.33007813 -5.83984375 z M187.82680859375 43.98921875 q-5.554199219 0 -9.553222656 4.125976563 t-3.999 9.9658 q0 3.776855469 1.824951172 7.061767578 t4.9353 5.0464 t6.792 1.7615 q3.745117188 0 6.839599609 -1.761474609 t4.9036 -5.0464 t1.8091 -7.0618 q0 -5.83984375 -3.999023438 -9.965820313 t-9.5532 -4.126 z M212.48775 60.207218749999996 l0 -4.1895 q0.5078125 -3.142089844 1.459960938 -5.109863281 q2.221679688 -5.458984375 5.966796875 -7.998046875 t6.2207 -2.5391 q1.840820313 0 3.935546875 1.206054688 l-2.3169 3.7451 q-2.951660156 -1.079101563 -5.855712891 1.745605469 t-4.0149 6.1572 q-0.8251953125 2.951660156 -0.8251953125 11.07666016 l0 11.775 l-4.5703 0 l0 -15.869 z M233.815884375 27.86621875 l4.5068 0 l0 27.485 l16.091 -14.028 l6.6016 0 l-14.568 13.235 l15.679 21.582 l-6.3477 0 l-13.711 -18.726 l-3.7451 3.0786 l0 15.647 l-4.5068 0 l0 -48.274 z"/></g><defs id="SvgjsDefs1002"/><g id="SvgjsG1010" rel="mainfill" name="monogram" xmlns:name="monogram_mainfill" transform="translate(13.543543196809663, -24.87087567813026) scale(1.2312313064548501)" fill="#000000"><path d="M79.4 119.8 l-16.3 -0.8 l-8.6 0.4 l0 -0.2 l-0.2 0.1 l-5.3 -13.7 l-29.4 -0.3 l-4.8 14.2 l-0.1 0 l0 0.1 l-15.4 0.5 l0 -0.2 l0 0.1 l-10.2 -1 l0.1 -0.2 l-0.2 0 l4.5 -14.1 l0.2 0 l-0.2 0 l7.8 -21 l0.2 0.1 l-0.2 -0.1 l2 -5 l0.1 0.1 l-0.1 -0.1 l8 -20.3 l3.9 -13 l0.1 0.1 l-0.1 -0.1 l5.8 -10.2 l3.7 -14.2 l0.2 0 l0 -0.2 l18.6 -0.6 l0 0.2 l0.1 -0.1 l5.9 16.4 l-0.2 0.1 l0.2 -0.1 l4.7 13.7 l5.2 13.8 l-0.1 0.1 l0.1 -0.1 l3.3 12.8 l8.6 19.2 l-0.1 0.1 l0.1 0 l-0.6 10.8 l8.8 12.5 l-0.1 0.1 l0 0.1 z M77.2 118.7 l0 0.1 l0 0 l0 -0.1 z M63.4 118.4 l3.2 -5.1 l-2.4 -1.2 l-2 1.5 z M66.8 113.4 l-3.1 5.2 l13.3 0 z M63.1 118.3 l-1.2 -4.5 l-2 1.5 z M-3 113.3 l5.8 1.9 l8.7 -11 l-14.7 8.3 z M2.6 115.5 l-5.4 -1.8 l2.2 5.9 z M-3.5 112.7 l-0.5 0.2 l0.6 0.2 z M-4 112.6 l0.4 -0.2 l-0.2 -0.3 z M5.8 92.8 l8.8 7.8 l6.9 -7.6 z M14.4 100.9 l-8.3 -7.4 l6 9.9 z M23.7 66.1 l-10 13.2 l7.2 -5.8 l0 -0.1 l0.1 0 l0 0 l12.3 -14.2 z M61.6 110 l8.1 -2.8 l-5.7 -0.4 z M69.6 107.6 l-8 2.8 l2.6 1.3 z M61.3 110 l2.3 -3.3 l-3 -0.2 z M61 110 l-0.7 -3.5 l-3.9 -0.4 z M56 105.8 l4.2 0.3 l-3 -15.8 l-6 11.5 z M55.4 105.7 l-4.4 -3.6 l-1.7 3.1 z M50.9 101.5 l6 -11.3 l-11.4 6.8 z M45.3 96.7 l11.6 -6.9 l-13.7 -4.9 z M35.2 84.7 l0 -0.1 l-8.8 -0.2 l2.6 9.4 z M25.8 83.9 l-4.7 -10.1 l-4.2 5.3 z M21.3 73.5 l4.8 10.3 l3.5 -15.3 z M26.4 84.1 l16.4 0.4 l-3.6 -11.1 l0 0 l-4.8 -14.7 l-4.4 9.5 l0 0 z M38.8 66.3 l-3.8 -6.6 l4.1 12.4 z M39.1 66.4 l0.4 6.7 l11.2 -4.9 z M29.7 68.1 l4.1 -8.9 l-11.9 13.6 z M16.6 79 l3.5 -4.5 l-6.6 5.4 z M26 84.4 l-8.7 -4.7 l11.3 13.7 z M35.3 85.2 l-6 8.8 l6.3 4.3 z M35.6 84.6 l0.4 13.6 l6.8 -13.4 z M39.6 73.5 l3.5 10.7 l7.7 -15.6 z M39 66.1 l11.9 1.9 l-16.1 -9.3 z M16.6 79.4 l-3.6 1 l8 11.2 z M21.6 93.4 l-6.8 7.4 l4.5 4.1 z M21.9 92.7 l12.6 5.2 l-5.5 -3.8 l0 0 l0 0 l-0.2 0.1 l-11.7 -14.2 l4.6 12.7 l-0.1 0 l0.2 0 l0 0.1 z M43 85.1 l-6.8 13.4 l8.8 -1.7 z M50.8 101.8 l-5.2 -4.3 l3.5 7.5 z M55.9 106.1 l-5.8 -0.5 l10.2 4.2 z M63.9 111.9 l-2.4 -1.2 l0.6 2.6 z M64.5 111.9 l2.2 1.1 l3.2 -5.2 z M64.2 106.4 l6 0.5 l-3.3 -4.3 z M63.8 106.4 l2.9 -4 l-9.1 -11.9 l3 15.7 z M57.8 90.2 l9.1 11.9 l4 -5.7 z M43.3 84.5 l13.8 5.1 l-5.9 -21.2 z M34.7 58.2 l16.4 9.5 l2.8 -17 z M42 42.5 l0.2 -7.2 l-10.5 -2.5 z M31.6 32.400000000000006 l10.6 2.5 l0.2 -8.8 z M41.5 42.400000000000006 l-10.3 -9.7 l-2.8 5 z M41.7 42.900000000000006 l-13.5 -4.9 l-6.7 11.9 z M41.8 43.099999999999994 l-20.2 7.2 l12.7 7.7 z M42.6 32.8 l0.3 -6.2 l-0.2 -0.3 z M43.2 27.099999999999994 l-0.4 8 l6.2 1.5 z M42.8 25.700000000000003 l0.2 0.4 l0.1 -2.5 z M42.5 25.599999999999994 l0.7 -4.8 l-3.9 3.9 z M42.2 25.799999999999997 l-3.2 -0.8 l-6.8 6.7 z M28.1 37.599999999999994 l2.5 -4.5 l-4.6 3.8 z M27.9 37.900000000000006 l-2.2 -0.8 l-10.1 8.4 l5.5 4.5 z M34.1 58.2 l-12.7 -7.7 l2.3 15.2 z M12.9 79.8 l10.4 -13.7 l-11.7 -7.4 z M21.3 92.7 l-8.5 -12.1 l-7.1 11.9 z M11.8 103.5 l-6.4 -10.5 l-5.4 11.2 z M11.4 103.9 l-11.5 0.6 l-3.5 7.2 l0.2 0.5 z M-3.7 111.2 l3.2 -6.6 l-5.6 0.3 z M-3.9 111.7 l-1.6 -4.4 l1.2 5.2 z M-3.2 113.5 l-0.8 -0.2 l2.3 4.4 z M2.9 115.6 l-3.2 4.1 l14.1 -0.4 z M3.1 115.3 l11.4 3.9 l-2.5 -15.1 z M14.6 101.1 l-2.2 2.5 l6.5 1.3 z M21.9 93.1 l-2.2 11.8 l15.8 -6.2 z M45.1 97.1 l-8.7 1.7 l12.3 6.2 z M61 110.4 l-11.2 -4.5 l8.6 8 z M61.1 110.7 l-2.5 3.4 l1.1 1 l2.1 -1.6 z M59.4 115.3 l-1 -0.9 l-3.1 4 z M59.7 115.5 l-4.7 3.6 l8 -0.4 z M77.2 119 l-7.8 0 l9 0.5 z M67 113.2 l11.9 6 l-8.4 -11.8 z M70.4 106.7 l0.6 -9.8 l-3.9 5.5 z M57.5 89.7 l13.3 6.3 l-8.3 -18.5 z M57.3 89.3 l5 -12.2 l-10.8 -8.7 z M54.1 51.099999999999994 l-2.6 16.6 l7.6 -3.5 z M34.7 57.9 l19 -7.5 l-11.5 -7.3 z M42.8 35.400000000000006 l-0.5 7.1 l6.7 -5.6 z M43.3 26.599999999999994 l5.3 8.8 l-5 -14.2 z M38.9 24.599999999999994 l4.2 -4.1 l-17.2 0.6 z M38.6 24.900000000000006 l-13.4 -3.6 l6 10.9 z M25.7 36.7 l4.7 -3.9 l-8.7 2.5 z M21.3 35.5 l-5.4 9.3 l9.5 -7.8 z M20.9 50.2 l-5.2 -4.2 l2.6 6.4 z M21.1 50.5 l-2.7 2.2 l4.8 12 z M23.2 65.6 l-5 -12.6 l-6.5 5.4 z M12.6 80.1 l-1.3 -20.9 l-7.6 19.4 z M12.5 80.4 l-8.9 -1.4 l1.9 13.1 z M-0.4 104.2 l5.2 -10.7 l-10.7 11.1 z M-4.5 112.9 l-1.8 -7.6 l-4.2 13 z M-4.4 113.2 l-6.1 5.5 l9.5 1 z M14.7 118.8 l4.5 -13.5 l-0.6 0 l0.3 -0.1 l-6.6 -1.3 z M35.9 98.9 l-15.6 6.1 l28.1 0.2 z M49.5 106 l5 12.9 l3.7 -4.8 z M62.2 76.6 l-3 -12.1 l-7.6 3.5 z M53.8 50 l-4.6 -12.9 l-6.8 5.7 z M24.9 21.400000000000006 l-3.5 13.7 l9.5 -2.7 z M15.4 45.900000000000006 l-3.6 12.1 l6.2 -5.3 z M1.6 83.8 l-7.5 20.3 l11.1 -11.5 l-1.8 -13.2 l-1.8 4.4 l0 0 z"/></g>
			</g>
		</svg>
    